<svg width="21" height="21" viewBox="0 0 21 21" fill="none" xmlns="http://www.w3.org/2000/svg">
<path d="M19.9639 10C19.6987 10 19.4443 10.1054 19.2568 10.2929C19.0692 10.4804 18.9639 10.7348 18.9639 11C18.9758 12.873 18.3342 14.6916 17.1495 16.1425C15.9649 17.5933 14.3114 18.5857 12.4738 18.9486C10.6363 19.3115 8.72965 19.0223 7.08237 18.1308C5.4351 17.2392 4.15027 15.8012 3.44919 14.0643C2.74811 12.3273 2.67466 10.4003 3.24149 8.61508C3.80832 6.82983 4.97994 5.29813 6.55457 4.28378C8.1292 3.26942 10.0083 2.83591 11.8681 3.05791C13.728 3.27991 15.4522 4.14352 16.7439 5.5H14.3439C14.0787 5.5 13.8243 5.60536 13.6368 5.79289C13.4492 5.98043 13.3439 6.23478 13.3439 6.5C13.3439 6.76522 13.4492 7.01957 13.6368 7.20711C13.8243 7.39464 14.0787 7.5 14.3439 7.5H18.8739C19.1391 7.5 19.3934 7.39464 19.581 7.20711C19.7685 7.01957 19.8739 6.76522 19.8739 6.5V2C19.8739 1.73478 19.7685 1.48043 19.581 1.29289C19.3934 1.10536 19.1391 1 18.8739 1C18.6087 1 18.3543 1.10536 18.1668 1.29289C17.9792 1.48043 17.8739 1.73478 17.8739 2V3.77C16.2085 2.17806 14.0446 1.20995 11.7479 1.02933C9.45115 0.848705 7.1625 1.46664 5.26879 2.77869C3.37508 4.09074 1.99248 6.01641 1.3547 8.23019C0.716918 10.444 0.86308 12.8101 1.76848 14.9285C2.67388 17.047 4.28297 18.7878 6.32377 19.8568C8.36456 20.9258 10.7119 21.2574 12.9689 20.7955C15.2259 20.3336 17.2543 19.1065 18.711 17.3217C20.1677 15.5369 20.9635 13.3038 20.9639 11C20.9639 10.7348 20.8585 10.4804 20.671 10.2929C20.4834 10.1054 20.2291 10 19.9639 10Z" fill="white"/>
</svg>
