<svg width="22" height="20" viewBox="0 0 22 20" fill="none" xmlns="http://www.w3.org/2000/svg">
<path d="M2.00024 1L5.5894 4.58916M20.0002 19L16.4114 15.4112M12.8751 16.8246C12.268 16.9398 11.6414 17 11.0007 17C6.52305 17 2.73275 14.0571 1.4585 9.99997C1.80539 8.8955 2.33875 7.87361 3.02168 6.97118M8.87892 7.87868C9.42182 7.33579 10.1718 7 11.0002 7C12.6571 7 14.0002 8.34315 14.0002 10C14.0002 10.8284 13.6645 11.5784 13.1216 12.1213M8.87892 7.87868L13.1216 12.1213M8.87892 7.87868L5.5894 4.58916M13.1216 12.1213L5.5894 4.58916M13.1216 12.1213L16.4114 15.4112M5.5894 4.58916C7.14922 3.58354 9.00681 3 11.0007 3C15.4783 3 19.2686 5.94291 20.5429 10C19.836 12.2507 18.3548 14.1585 16.4114 15.4112" stroke="black" stroke-opacity="0.75" stroke-width="2" stroke-linecap="round" stroke-linejoin="round"/>
</svg>
